<!--
TODO
- [x] solve tangent
- [ ] arc representation convertion (svg <-> our format)
- [ ] especially bad looking ones
  - s, 4, 5
-->

<!-- viewBox = -d -d width (something-big) -->
<!-- width  = 4 x (num-columns) + 2d -->
<!--        = 4 x 6 + 2 -->
<svg xmlns="http://www.w3.org/2000/svg" xmlns:xlink="http://www.w3.org/1999/xlink"
     width="600" height="3000" viewBox="-1 -1 26 10000" preserveAspectRatio="xMinYMin slice">

  <defs>
    <!--
      Coordinate grid [-2, 2] x [2, 4]

      (-2, 4) - (0, 4) - (2, 4)
        |        |        |
      (-2, 0) - (0, 0) - (2, 0)
      (-2,-2) - (0,-2) - (2,-2)
    -->
    <g id="_grid" fill="transparent" stroke="black" stroke-width="0.05" stroke-opacity="0.1">
      <path d="M -2  4  h 4"/>
      <path d="M -2  3  h 4"/>
      <path d="M -2  2  h 4"/>
      <path d="M -2  1  h 4"/>
      <path d="M -2  0  h 4" stroke-opacity="0.4"/>
      <path d="M -2 -1  h 4"/>
      <path d="M -2 -2  h 4"/>

      <path d="M -2 -2  v 6"/>
      <path d="M -1 -2  v 6"/>
      <path d="M  0 -2  v 6" stroke-opacity="0.4"/>
      <path d="M  1 -2  v 6"/>
      <path d="M  2 -2  v 6"/>
    </g>

    <!-- English alphabets -->
    <!-- "arc" on the right is our circle arc notation used for sdf font code generation -->

    <!-- upper case -->
    <g id="en_A">
      <path d="M 0 4  L -1 0"/>
      <path d="M 0 4  L  1 0"/>
      <path d="M -0.75 1  L 0.75 1"/>
    </g>
    <g id="en_B">
      <path d="M -1 4  L -1 0"/>
      <path d="M -1 4  L 0 4"/>
      <path d="M  0 4  A 1 1  0  1 0  0 2"/> <!-- arc 0 3  1  0.25 -0.25 -->
      <path d="M 0 2  L -1 2"/>
      <path d="M  0 2  A 1 1  0  1 0  0 0"/> <!-- arc 0 1  1  0.25 -0.25 -->
      <path d="M 0 0  L -1 0"/>
    </g>
    <g id="en_C">
      <path d="M  1 3  A 1 1  0  1 1  -1 3"/> <!-- arc 0 3  1  0 0.5 -->
      <path d="M -1 3  L -1 1"/>
      <path d="M -1 1  A 1 1  0  1 1  1 1"/> <!-- arc 0 1  1  0.5 1.0 -->
    </g>
    <g id="en_D">
      <path d="M -1 4  L -1 0"/>
      <path d="M -1 4  A 2 2  0  1 0  -1 0"/> <!-- arc -1 2  2  0.25 -0.25 -->
    </g>
    <g id="en_E">
      <path d="M -1 4  L -1 0"/>
      <path d="M -1 4  L 1 4"/>
      <path d="M -1 2  L 1 2"/>
      <path d="M -1 0  L 1 0"/>
    </g>
    <g id="en_F">
      <path d="M -1 4  L -1 0"/>
      <path d="M -1 4  L 1 4"/>
      <path d="M -1 2  L 1 2"/>
    </g>
    <g id="en_G">
      <path d="M  1 3  A 1 1  0  1 1  -1 3"/> <!-- arc 0 3  1  0 0.5 -->
      <path d="M -1 3  L -1 1"/>
      <path d="M -1 1  A 1 1  0  1 1  1 1"/> <!-- arc 0 1  1  0.5 1.0 -->
      <path d="M 1 1  L 1 2"/>
      <path d="M 0 2  L 1 2"/>
    </g>
    <g id="en_H">
      <path d="M -1 4  L -1 0"/>
      <path d="M -1 2  L 1 2"/>
      <path d="M 1 4  L 1 0"/>
    </g>
    <g id="en_I">
      <path d="M -0.5 4  L 0.5 4"/>
      <path d="M 0 4  L 0 0"/>
      <path d="M -0.5 0  L 0.5 0"/>
    </g>
    <g id="en_J">
      <path d="M 0.5 4  L 1.5 4"/>
      <path d="M 1 4  L 1 1"/>
      <path d="M 1 1  A 1 1  0  1 0  -1 1"/>  <!-- arc 0 1  1  0 -0.5 -->
    </g>
    <g id="en_K">
      <path d="M -1 4  L -1 0"/>
      <path d="M 1 4  L -1 2"/>
      <path d="M -1 2  L 1 0"/>
    </g>
    <g id="en_L">
      <path d="M -1 4  L -1 0"/>
      <path d="M -1 0  L 1 0"/>
    </g>
    <g id="en_M">
      <path d="M -1 4  L -1 0"/>
      <path d="M -1 4  L 0 0"/>
      <path d="M 0 0  L 1 4"/>
      <path d="M 1 4  L 1 0"/>
    </g>
    <g id="en_N">
      <path d="M -1 4  L -1 0"/>
      <path d="M -1 4  L 1 0"/>
      <path d="M 1 4  L 1 0"/>
    </g>
    <g id="en_O">
      <path d="M  0 4  A 1 1  0  0 1  -1 3"/>  <!-- arc 0 3  1  0.25 0.5 -->
      <path d="M -1 3  L -1 1"/>
      <path d="M -1 1  A 1 1  0  1 1  1 1"/>  <!-- arc 0 1  1  0.5 1.0 -->
      <path d="M 1 1  L 1 3"/>
      <path d="M 1 3  A 1 1  0  0 1  0 4"/>  <!-- arc 0 3  1  0 0.25 -->
    </g>
    <g id="en_P">
      <path d="M -1 4  L -1 0"/>
      <path d="M -1 4  L 0 4"/>
      <path d="M 0 4  A 1 1  0  1 0  0 2"/>  <!-- arc 0 3  1  0.25 -0.25 -->
      <path d="M 0 2  L -1 2"/>
    </g>
    <g id="en_Q">
      <!-- <use xlink:href="#en_O" /> -->
      <path d="M  0 4  A 1 1  0  0 1  -1 3"/>  <!-- arc 0 3  1  0.25 0.5 -->
      <path d="M -1 3  L -1 1"/>
      <path d="M -1 1  A 1 1  0  1 1  1 1"/>  <!-- arc 0 1  1  0.5 1.0 -->
      <path d="M 1 1  L 1 3"/>
      <path d="M 1 3  A 1 1  0  0 1  0 4"/>  <!-- arc 0 3  1  0 0.25 -->

      <path d="M 0 1  L 1 0"/>
    </g>
    <g id="en_R">
      <!-- <use xlink:href="#en_P" /> -->
      <path d="M -1 4  L -1 0"/>
      <path d="M -1 4  L 0 4"/>
      <path d="M 0 4  A 1 1  0  1 0  0 2"/>  <!-- arc 0 3  1  0.25 -0.25 -->
      <path d="M 0 2  L -1 2"/>

      <path d="M 0 2  L 1 0"/>
    </g>
    <g id="en_S">
      <path d="M 1 3  A 1 1  0  1 1  0 2"/>  <!-- arc 0 3  1  0 0.75 -->
      <path d="M 0 2  A 1 1  0  1 0  -1 1"/> <!-- arc 0 1  1  0.25 -0.5 -->
    </g>
    <g id="en_T">
      <path d="M -1 4  L 1 4"/>
      <path d="M 0 4  L 0 0"/>
    </g>
    <g id="en_U">
      <path d="M -1 4  L -1 1"/>
      <path d="M -1 1  A 1 1  0  1 1  1 1"/>  <!-- arc 0 1  1  0.5 1.0 -->
      <path d="M 1 1  L 1 4"/>
    </g>
    <g id="en_V">
      <path d="M -1 4  L 0 0"/>
      <path d="M 0 0  L 1 4"/>
    </g>
    <g id="en_W">
      <path d="M -1 4  L -0.5 0"/>
      <path d="M -0.5 0  L 0 4"/>
      <path d="M 0 4  L 0.5 0"/>
      <path d="M 0.5 0  L 1 4"/>
    </g>
    <g id="en_X">
      <path d="M -1 4  L 1 0"/>
      <path d="M 1 4  L -1 0"/>
    </g>
    <g id="en_Y">
      <path d="M -1 4  L 0 2"/>
      <path d="M 1 4  L 0 2"/>
      <path d="M 0 2  L 0 0"/>
    </g>
    <g id="en_Z">
      <path d="M -1 4  L 1 4"/>
      <path d="M 1 4  L -1 0"/>
      <path d="M -1 0  L 1 0"/>
    </g>

    <!-- lower case -->
    <g id="en_a">
      <path d="M 1 1  A 1 1  0  1 1  1 0.999"/> <!-- arc 0 1  1  0 1 -->
      <path d="M 1 2  L 1 0"/>
    </g>
    <g id="_en_a">
      <path d="M 1 1  A 1 1  0  1 1  1 0.999"/> <!-- arc 0 1  1  0 1 -->
      <path d="M -1 2.25  A 1 1  0  0 0  1 2.25"/> <!-- arc 0 2.25  1  0.5 0 -->
      <path d="M 1 2.25  L 1 0"/>
    </g>
    <g id="_en_a">
      <path d="M 1 1  A 1 1  0  1 1  1 0.999"/> <!-- arc 0 1  1  0 1 -->
      <path d="M -1 3  L 0 3"/>
      <path d="M 0 3  A 1 1  0  0 0  1 2"/> <!-- arc 0 2  1  0.25 0 -->
      <path d="M 1 2  L 1 0"/>
    </g>
    <g id="en_b">
      <path d="M -1 4  L -1 0"/>
      <path d="M -1 1  A 1 1  0  1 0  -1 0.999"/> <!-- arc 0 1  1  0.5 -0.5 -->
    </g>
    <g id="en_c">
      <!--  1 / sqrt(2) ~= 0.707 -->
      <path d="M  0.707 1.707  A 1 1  0  1 1  0.707 0.293"/> <!-- arc 0 1  1  0.125 0.875 -->
    </g>
    <g id="en_d">
      <path d="M 1 1  A 1 1  0  1 1  1 0.999"/> <!-- arc 0 1  1  0 1 -->
      <path d="M 1 4  L 1 0"/>
    </g>
    <g id="en_e">
      <path d="M -1 1  L 1 1"/>
      <path d="M  1 1  A 1 1  0  1 1  0.707 0.293"/> <!-- arc 0 1  1  0 0.875 -->
    </g>
    <g id="en_f">
      <path d="M  1 3.5  L 0.5 3.5"/>
      <path d="M  0.5 3.5  A 0.5 0.5  0  0 1  0 3"/> <!-- arc 0.5 3  0.5  0.25 0.5 -->
      <path d="M  0 3  L 0 0"/>
      <path d="M -1 2  L 1 2"/>
    </g>
    <g id="en_g">
      <path d="M  1 1  A 1 1  0  1 0  1 1.001"/> <!-- arc 0 1  1  0 1 -->
      <path d="M 1 2  L 1 -1"/>
      <path d="M 1 -1  A 1 1  0  1 0  -1 -1"/> <!-- arc 0 -1  1  0 -0.5 -->
    </g>
    <g id="en_h">
      <path d="M -1 4  L -1 0"/>
      <path d="M -1 1  A 1 1  0  1 0  1 1"/>  <!-- arc 0 1  1  0.5 0 -->
      <path d="M  1 1  L 1 0"/>
    </g>
    <g id="en_i">
      <path d="M 0 2  L 0 0"/>
      <path d="M 0 3  L 0 3"/>
    </g>
    <g id="en_j">
      <path d="M 1 2  L 1 0"/>
      <path d="M 1 0  A 1 1  0  1 0  -1 0"/>  <!-- arc 0 0  1  0 -0.5 -->
      <path d="M 1 3  L 1 3"/>
    </g>
    <g id="en_k">
      <path d="M -1 4  L -1 0"/>
      <path d="M  1 2  L -1 1"/>
      <path d="M  0 1.5  L 1 0"/>
    </g>
    <g id="en_l">
      <path d="M 0 4  L 0 0"/>
    </g>
    <g id="en_m">
      <path d="M -1 2  L -1 0"/>
      <path d="M -1 1.5  A 0.5 0.5  0  1 0  0 1.5"/>  <!-- arc -0.5 1.5  0.5  0.5 0 -->
      <path d="M  0 1.5  L 0 0"/>
      <path d="M  0 1.5  A 0.5 0.5  0  1 0  1 1.5"/>  <!-- arc 0.5 1.5  0.5  0.5 0 -->
      <path d="M  1 1.5  L 1 0"/>
    </g>
    <g id="en_n">
      <path d="M -1 2  L -1 0"/>
      <path d="M -1 1  A 0.5 0.5  0  1 0  1 1"/>  <!-- arc 0 1  1  0.5 0 -->
      <path d="M  1 1  L 1 0"/>
    </g>
    <g id="en_o">
      <path d="M  0 2  A 1 1  0  1 1  0.001 2"/>  <!-- arc 0 1  1  0.25 1.25 -->
    </g>
    <g id="en_p">
      <path d="M -1 2  L -1 -2"/>
      <path d="M -1 1  A 1 1  0  1 0  -1 0.999"/> <!-- arc 0 1  1  0.5 -0.5 -->
    </g>
    <g id="en_q">
      <path d="M 1 1.001  A 1 1  0  1 1  1 1"/> <!-- arc 0 1  1  0 1 -->
      <path d="M 1 2  L 1 -2"/>
    </g>
    <g id="en_r">
      <path d="M 0 2  L 0 0"/>
      <path d="M 0 1  A 1 1  0  0 0  1 2"/>  <!-- arc 1 1  1  0.5 0.25 -->
    </g>
    <g id="en_s">
      <path d="M 0.75 1.5  A 0.5 0.5  0  0 1  0.25 2"/>  <!-- arc 0.25 1.5  0.5  0 0.25 -->
      <path d="M 0.25 2  L -0.25 2"/>
      <path d="M -0.25 2  A 0.5 0.5  0  1 1  -0.25 1"/>  <!-- arc -0.25 1.5  0.5  0.25 0.75 -->
      <path d="M -0.25 1  L 0.25 1"/>
      <path d="M 0.25 1    A 0.5 0.5  0  1 0  0.25 0"/>  <!-- arc 0.25 0.5  0.5  0.25 -0.25 -->
      <path d="M 0.25 0  L -0.25 0"/>
      <path d="M -0.25 0  A 0.5 0.5  0  0 0  -0.75 0.5"/>  <!-- arc -0.25 0.5  0.5  -0.25 -0.5 -->
    </g>
    <g id="_en_s">
      <path d="M 0.5 1.5  A 0.5 0.5  0  1 1  0 1"/>
      <path d="M 0 1  A 0.5 0.5  0  1 0  -0.5 0.5"/>
    </g>
    <g id="en_t">
      <path d="M 0 3  L 0 0.5"/>
      <path d="M 0 0.5  A 0.5 0.5  0  0 1  0.5 0"/>   <!-- arc 0 1  1  0.5 1 -->
      <path d="M 0.5 0  L 1 0"/>
      <path d="M -1 2  L 1 2"/>
    </g>
    <g id="_en_t">
      <path d="M 0 2.5  L 0 0.5"/>
      <path d="M 0 0.5  A 0.5 0.5  0  0 1  0.5 0"/>  <!-- arc 0.5 0.5  0.5  0.5 0.75 -->
      <path d="M -0.5 2  L 0.5 2"/>
    </g>
    <g id="en_u">
      <path d="M -1 2  L -1 1"/>
      <path d="M -1 1  A 1 1  0  1 1  1 1"/>  <!-- arc 0 1  1  0.5 1.0 -->
      <path d="M 1 1  L 1 2"/>
      <path d="M 1 1  L 1 0"/>
    </g>
    <g id="en_v">
      <path d="M -1 2  L 0 0"/>
      <path d="M 0 0  L 1 2"/>
    </g>
    <g id="en_w">
      <path d="M -1 2  L -0.5 0"/>
      <path d="M -0.5 0  L 0 2"/>
      <path d="M 0 2  L 0.5 0"/>
      <path d="M 0.5 0  L 1 2"/>
    </g>
    <g id="en_x">
      <path d="M -1 2  L 1 0"/>
      <path d="M 1 2  L -1 0"/>
    </g>
    <g id="en_y">
      <path d="M -1 2  L 0 0"/>
      <path d="M 1 2  L -1 -2"/>
    </g>
    <g id="en_z">
      <path d="M -1 2  L 1 2"/>
      <path d="M 1 2  L -1 0"/>
      <path d="M -1 0  L 1 0"/>
    </g>

    <!--  Numbers -->
    <g id="num_0">
      <!-- <use xlink:href="#en_O" /> -->
      <path d="M  0 4  A 1 1  0  0 1  -1 3"/>  <!-- arc 0 3  1  0.25 0.5 -->
      <path d="M -1 3  L -1 1"/>
      <path d="M -1 1  A 1 1  0  1 1  1 1"/>  <!-- arc 0 1  1  0.5 1.0 -->
      <path d="M 1 1  L 1 3"/>
      <path d="M 1 3  A 1 1  0  0 1  0 4"/>  <!-- arc 0 3  1  0 0.25 -->
    </g>
    <g id="num_1">
      <path d="M -1 3  L 0 4"/>
      <path d="M  0 4  L 0 0"/>
    </g>
    <g id="num_2">
      <!-- tangent circle_point(0, 3, 1, -1, 0)[0]  -->
      <path d="M -1 3  A 1 1  0  1 0  0.8 2.4"/>  <!-- arc 0 3  1  0.5 -0.1024 -->
      <path d="M 0.8 2.4  L -1 0"/>
      <path d="M -1 0  L 1 0"/>
    </g>
    <g id="num_3">
      <path d="M -1 3  A 1 1  0  1 0   0 2"/>  <!-- arc 0 3  1  0.5 -0.25 -->
      <path d="M  0 2  A 1 1  0  1 0  -1 1"/>  <!-- arc 0 1  1  0.25 -0.5 -->
    </g>
    <g id="num_4">
      <path d="M 0 4  L -1 1"/>
      <path d="M -1 1  L 1 1"/>
      <path d="M 0 4  L 0 0"/>
    </g>
    <g id="_num_4">
      <path d="M -0.75 4  L -1 1"/>
      <path d="M -1 1  L 1 1"/>
      <path d="M 0 2.5  L 0 0"/>
    </g>
    <g id="num_5">
      <path d="M -1 4  L -1 2"/>
      <path d="M -1 2  L 0 2"/>
      <path d="M  0 2  A 1 1  0  1 0  -1 1"/>  <!-- arc 0 1  1  0.25 -0.5 -->
      <path d="M -1 4  L 1 4"/>
    </g>
    <g id="_num_5">
      <path d="M -0.707 4  L -0.707 1.707"/>
      <path d="M -0.707 1.707  A 1 1  0  1 0  -0.707 0.293"/>  <!-- arc 0 1  1  0.25 -0.5 -->
      <path d="M -0.707 4  L 1 4"/>
    </g>
    <g id="num_6">
      <path d="M  1 3  A 1 1  0  1 1  -1 3"/>  <!-- arc 0 3  1  0 0.5 -->
      <path d="M -1 3  L -1 1"/>
      <path d="M -1 1  A 1 1  0  1 1  -1 1.001"/>  <!-- arc 0 1  1  0.5 1.5 -->
    </g>
    <g id="num_7">
      <path d="M -1 4  L -1 3"/>
      <path d="M -1 4  L  1 4"/>
      <path d="M  1 4  L  0 0"/>
    </g>
    <g id="num_8">
      <path d="M 0 2  A 1 1  0  1 0  0.001 2"/>  <!-- arc 0 3  1  -0.25 0.75 -->
      <path d="M 0 2  A 1 1  0  1 1  0.001 2"/>  <!-- arc 0 1  1  0.25 -0.75 -->
    </g>
    <g id="num_9">
      <!-- tangent circle_point(0, 3, 1, 0, 0)[0]  -->
      <path d="M 1 3  A 1 1  0  1 1  1 2.999"/>  <!-- arc 0 3  1  0 1 -->
      <path d="M 0.9428 2.6667  L 0 0"/>
    </g>
    <g id="_num_9">
      <path d="M 1 3  A 1 1  0  1 1  1 2.999"/>  <!-- arc 0 3  1  0 1 -->
      <path d="M 1 3  L 1 1"/>
      <path d="M 1 1  A 1 1  0  1 0  -1 1"/>  <!-- arc 0 1  1  0 -0.5 -->
    </g>

    <!--  ASCII symbols -->
    <!--
      >>> print(*[(i, chr(i)) for i in range(ord(' '), ord('~') + 1)], sep='\n')
      (32, ' ')
      (33, '!')
      (34, '"')
      (35, '#')
      (36, '$')
      (37, '%')
      (38, '&')
      (39, "'")
      (40, '(')
      (41, ')')
      (42, '*')
      (43, '+')
      (44, ',')
      (45, '-')
      (46, '.')
      (47, '/')
      (48, '0')
      ...
      (57, '9')
      (58, ':')
      (59, ';')
      (60, '<')
      (61, '=')
      (62, '>')
      (63, '?')
      (64, '@')
      (65, 'A')
      ...
      (90, 'Z')
      (91, '[')
      (92, '\\')
      (93, ']')
      (94, '^')
      (95, '_')
      (96, '`')
      (97, 'a')
      ...
      (122, 'z')
      (123, '{')
      (124, '|')
      (125, '}')
      (126, '~')
     -->

    <g id="ascii_32">
      <!-- (32, ' ') -->
    </g>
    <g id="ascii_33">
      <!-- (33, '!') -->
      <path d="M  0 4  L 0 1.25"/>
      <path d="M  0 0.25  L 0 0"/>
    </g>
    <g id="ascii_34">
      <!-- (34, '"') -->
      <path d="M -0.5 4  L -0.5 3"/>
      <path d="M  0.5 4  L  0.5 3"/>
    </g>
    <g id="ascii_35">
      <!-- (35, '#') -->
      <path d="M -0.5 4  L -0.5 0"/>
      <path d="M  0.5 4  L  0.5 0"/>
      <path d="M -1 3  L 1 3"/>
      <path d="M -1 1  L 1 1"/>
    </g>
    <g id="ascii_36">
      <!-- (36, '$') -->
      <!-- <use xlink:href="#en_S" /> -->
      <path d="M 1 3  A 1 1  0  1 1  0 2"/>  <!-- arc 0 3  1  0 0.75 -->
      <path d="M 0 2  A 1 1  0  1 0  -1 1"/>  <!-- arc 0 1  1  0.25 -0.5 -->
      <path d="M 0 4.25  L  0 -0.25"/>
    </g>
    <g id="ascii_37">
      <!-- (37, '%') -->
      <path d="M 1 4  L  -1 0"/>
      <path d="M -0.5 4  A 0.5 0.5  0  1 0  -0.501 4"/>  <!-- arc -0.5 3.5  0.5  0.25 1.25 -->
      <path d="M  0.5 1  A 0.5 0.5  0  1 1  0.501 1"/>  <!-- arc  0.5 0.5  0.5  0.25 1.25 -->
    </g>
    <g id="ascii_38">
      <!-- (38, '&') -->
      <!-- tangent circle_circle(0, 1, 1, 0, 3, 0.75)[2] -->
      <!-- tangent circle_point(0, 3, 0.75, 1, 0)[1] -->
      <path d="M 1 1.5  L  1 1"/>
      <path d="M 1 1  A 1 1  0  1 0  -0.4841 1.875"/>  <!-- arc 0 1  1  1.0 0.3304 -->
      <path d="M -0.4841 1.875  L  0.363 2.344"/>
      <path d="M 0.363 2.344  A 0.75 0.75  0  1 1  -0.6350 2.600"/>  <!-- arc 0 3  0.75  -0.1696 0.591 -->
      <path d="M -0.6350 2.600  L 1 0"/>
    </g>
    <g id="ascii_39">
      <!-- (39, "'") -->
      <path d="M  0 4  L  0 3"/>
    </g>
    <g id="ascii_40">
      <!-- (40, '(') -->
      <!-- r = 2 * sqrt(2) ~=  2.828 -->
      <path d="M 0 4  A 2.828 2.828  0  0 1  0 0"/>  <!-- arc 2 2  2.828  0.375 0.625 -->
    </g>
    <g id="ascii_41">
      <!-- (41, ')') -->
      <path d="M 0 4  A 2.828 2.828  0  0 0  0 0"/>  <!-- arc -2 2  2.828  0.125 -0.125 -->
    </g>
    <g id="ascii_42">
      <!-- (42, '*') -->
      <path d="M  0 2  L  0 1"/>
      <path d="M -1 1.25  L  0 1"/>
      <path d="M  1 1.25  L  0 1"/>
      <path d="M -0.75 0  L  0 1"/>
      <path d="M  0.75 0  L  0 1"/>
    </g>
    <g id="ascii_43">
      <!-- (43, '+') -->
      <path d="M  0 2  L  0 0"/>
      <path d="M -1 1  L  1 1"/>
    </g>
    <g id="ascii_44">
      <!-- (44, ',') -->
      <path d="M 0 0  L  -0.5 -1  "/>
    </g>
    <g id="ascii_45">
      <!-- (45, '-') -->
      <path d="M -1 1  L  1 1"/>
    </g>
    <g id="ascii_46">
      <!-- (46, '.') -->
      <path d="M 0 0  L  0 0"/>
    </g>
    <g id="ascii_47">
      <!-- (47, '/') -->
      <path d="M 0.5 4  L  -0.5 0"/>
    </g>

    <g id="ascii_58">
      <!-- (58, ':') -->
      <path d="M 0 2.5  L  0 2"/>
      <path d="M 0 0.5  L  0 0"/>
    </g>
    <g id="ascii_59">
      <!-- (59, ';') -->
      <path d="M 0 2.5  L  0 2"/>
      <path d="M 0 0.5  L  -0.5 -0.5"/>
    </g>
    <g id="ascii_60">
      <!-- (60, '<') -->
      <path d="M 1 2  L  -1 1"/>
      <path d="M -1 1  L  1 0"/>
    </g>
    <g id="ascii_61">
      <!-- (61, '=') -->
      <path d="M -1 1.5  L  1 1.5"/>
      <path d="M -1 0.5  L  1 0.5"/>
    </g>
    <g id="ascii_62">
      <!-- (62, '>') -->
      <path d="M -1 2  L  1 1"/>
      <path d="M 1 1  L  -1 0"/>
    </g>
    <g id="ascii_63">
      <!-- (63, '?') -->
      <!-- tangent circle_point(0, 3, 1, 0, 1)[0]  -->
      <path d="M -1 3  A 1 1  0  1 0  0.866 2.5"/>  <!-- arc 0 3  1  0.5 -0.083 -->
      <path d="M  0.866 2.5  L 0 1"/>
      <path d="M 0 0  L 0 0"/>
    </g>
    <g id="ascii_64">
      <!-- (64, '@') -->
      <path d="M 0.5 2  A 0.5 0.5  0  1 1  0.5 1.999"/> <!-- arc 0 2  0.5  0 1 -->
      <path d="M 0.5 2.5  L 0.5 1.5"/>

      <!-- <use xlink:href="#en_O" /> -->
      <path d="M  0 4  A 1 1  0  0 1  -1 3"/>  <!-- arc 0 3  1  0.25 0.5 -->
      <path d="M -1 3  L -1 1"/>
      <path d="M -1 1  A 1 1  0  1 1  1 1"/>  <!-- arc 0 1  1  0.5 1.0 -->
      <path d="M 1 1  L 1 3"/>
      <path d="M 1 3  A 1 1  0  0 1  0 4"/>  <!-- arc 0 3  1  0 0.25 -->
    </g>

    <g id="ascii_91">
      <!-- (91, '[') -->
      <path d="M -0.5 4  L 0.5 4"/>
      <path d="M -0.5 4  L -0.5 0"/>
      <path d="M -0.5 0  L 0.5 0"/>
    </g>
    <g id="ascii_92">
      <!-- (92, '\\') -->
      <path d="M -0.5 4  L 0.5 0"/>
    </g>
    <g id="ascii_93">
      <!-- (93, ']') -->
      <path d="M -0.5 4  L 0.5 4"/>
      <path d="M  0.5 4  L 0.5 0"/>
      <path d="M -0.5 0  L 0.5 0"/>
    </g>
    <g id="ascii_94">
      <!-- (94, '^') -->
      <path d="M -1 3  L 0 4"/>
      <path d="M 0 4  L 1 3"/>
    </g>
    <g id="ascii_95">
      <!-- (95, '_') -->
      <path d="M -1 0  L 1 0"/>
    </g>
    <g id="ascii_96">
      <!-- (96, '`') -->
      <path d="M -0.5 4  L 0.5 3"/>
    </g>

    <g id="ascii_123">
      <!-- (123, '{') -->
      <path d="M 0.5 4  A 0.5 0.5 0  0 1  0 3.5"/>  <!-- arc 0.5 3.5  0.5  0.25 0.5 -->
      <path d="M 0 3.5  L 0 2.5"/>
      <path d="M 0 2.5  A 0.5 0.5 0  0 0  -0.5 2"/>  <!-- arc -0.5 2.5  0.5  0 -0.25 -->
      <path d="M -0.5 2  A 0.5 0.5 0  0 0  0 1.5"/>  <!-- arc -0.5 1.5  0.5  0.25 0 -->
      <path d="M 0 1.5  L 0 0.5"/>
      <path d="M 0 0.5  A 0.5 0.5 0  0 1  0.5 0"/>  <!-- arc 0.5 0.5  0.5 0.5 0.75 -->
    </g>
    <g id="ascii_124">
      <!-- (124, '|') -->
      <path d="M 0 4  L 0 0"/>
    </g>
    <g id="ascii_125">
      <!-- (125, '}') -->
      <path d="M -0.5 4  A 0.5 0.5 0  0 0  0 3.5"/>  <!-- arc -0.5 3.5  0.5  0.25 0 -->
      <path d="M 0 3.5  L 0 2.5"/>
      <path d="M 0 2.5  A 0.5 0.5 0  0 1  0.5 2"/>  <!-- arc 0.5 2.5  0.5  0.5 0.75 -->
      <path d="M 0.5 2  A 0.5 0.5 0  0 1  0 1.5"/>  <!-- arc 0.5 1.5  0.5  0.25 0.5 -->
      <path d="M 0 1.5  L 0 0.5"/>
      <path d="M 0 0.5  A 0.5 0.5 0  0 0  -0.5 0"/>  <!-- arc -0.5 0.5  0.5  0 -0.25 -->
    </g>
    <g id="ascii_126">
      <!-- (126, '~') -->
      <!-- 1 / sqrt(2) = 0.707 -->
      <path d="M -1 1  A 0.707 0.707  0  0 0  0 1"/>  <!-- arc -0.5 0.5  0.707  0.375 0.125 -->
      <path d="M  0 1  A 0.707 0.707  0  0 1  1 1"/>  <!-- arc  0.5 1.5  0.707  0.625 0.875 -->
    </g>
  </defs>

  <!-- Transform [0, 4] x [0, 6] to  [-2, 2] x [4, -2] -->
  <g transform="matrix(1 0 0 -1 2 4)">
    <g stroke-linecap="round" stroke="black" stroke-width="0.4" fill="none">

      <!-- Upper case -->
      <use x="0"  y="0" xlink:href="#en_A" />
      <use x="4"  y="0" xlink:href="#en_B" />
      <use x="8"  y="0" xlink:href="#en_C" />
      <use x="12" y="0" xlink:href="#en_D" />
      <use x="16" y="0" xlink:href="#en_E" />
      <use x="20" y="0" xlink:href="#en_F" />
      <use x="0"  y="-6.5" xlink:href="#en_G" />
      <use x="4"  y="-6.5" xlink:href="#en_H" />
      <use x="8"  y="-6.5" xlink:href="#en_I" />
      <use x="12" y="-6.5" xlink:href="#en_J" />
      <use x="16" y="-6.5" xlink:href="#en_K" />
      <use x="20" y="-6.5" xlink:href="#en_L" />
      <use x="0"  y="-13" xlink:href="#en_M" />
      <use x="4"  y="-13" xlink:href="#en_N" />
      <use x="8"  y="-13" xlink:href="#en_O" />
      <use x="12" y="-13" xlink:href="#en_P" />
      <use x="16" y="-13" xlink:href="#en_Q" />
      <use x="20" y="-13" xlink:href="#en_R" />
      <use x="0"  y="-19.5" xlink:href="#en_S" />
      <use x="4"  y="-19.5" xlink:href="#en_T" />
      <use x="8"  y="-19.5" xlink:href="#en_U" />
      <use x="12" y="-19.5" xlink:href="#en_V" />
      <use x="16" y="-19.5" xlink:href="#en_W" />
      <use x="20" y="-19.5" xlink:href="#en_X" />
      <use x="0"  y="-26" xlink:href="#en_Y" />
      <use x="4"  y="-26" xlink:href="#en_Z" />

      <!-- Lower case -->
      <use x="0"  y="-32.5" xlink:href="#en_a" />
      <use x="4"  y="-32.5" xlink:href="#en_b" />
      <use x="8"  y="-32.5" xlink:href="#en_c" />
      <use x="12" y="-32.5" xlink:href="#en_d" />
      <use x="16" y="-32.5" xlink:href="#en_e" />
      <use x="20" y="-32.5" xlink:href="#en_f" />
      <use x="0"  y="-39" xlink:href="#en_g" />
      <use x="4"  y="-39" xlink:href="#en_h" />
      <use x="8"  y="-39" xlink:href="#en_i" />
      <use x="12" y="-39" xlink:href="#en_j" />
      <use x="16" y="-39" xlink:href="#en_k" />
      <use x="20" y="-39" xlink:href="#en_l" />
      <use x="0"  y="-45.5" xlink:href="#en_m" />
      <use x="4"  y="-45.5" xlink:href="#en_n" />
      <use x="8"  y="-45.5" xlink:href="#en_o" />
      <use x="12" y="-45.5" xlink:href="#en_p" />
      <use x="16" y="-45.5" xlink:href="#en_q" />
      <use x="20" y="-45.5" xlink:href="#en_r" />
      <use x="0"  y="-52.0" xlink:href="#en_s" />
      <use x="4"  y="-52.0" xlink:href="#en_t" />
      <use x="8"  y="-52.0" xlink:href="#en_u" />
      <use x="12" y="-52.0" xlink:href="#en_v" />
      <use x="16" y="-52.0" xlink:href="#en_w" />
      <use x="20" y="-52.0" xlink:href="#en_x" />
      <use x="0"  y="-58.5" xlink:href="#en_y" />
      <use x="4"  y="-58.5" xlink:href="#en_z" />

      <!-- Numbers -->
      <use x="0"  y="-65.0" xlink:href="#num_0" />
      <use x="4"  y="-65.0" xlink:href="#num_1" />
      <use x="8"  y="-65.0" xlink:href="#num_2" />
      <use x="12" y="-65.0" xlink:href="#num_3" />
      <use x="16" y="-65.0" xlink:href="#num_4" />
      <use x="20" y="-65.0" xlink:href="#num_5" />
      <use x="0"  y="-71.5" xlink:href="#num_6" />
      <use x="4"  y="-71.5" xlink:href="#num_7" />
      <use x="8"  y="-71.5" xlink:href="#num_8" />
      <use x="12" y="-71.5" xlink:href="#num_9" />

      <!-- ASCII symbols -->
      <use x="0"  y="-78.0" xlink:href="#ascii_32" />
      <use x="4"  y="-78.0" xlink:href="#ascii_33" />
      <use x="8"  y="-78.0" xlink:href="#ascii_34" />
      <use x="12" y="-78.0" xlink:href="#ascii_35" />
      <use x="16" y="-78.0" xlink:href="#ascii_36" />
      <use x="20" y="-78.0" xlink:href="#ascii_37" />
      <use x="0"  y="-84.5" xlink:href="#ascii_38" />
      <use x="4"  y="-84.5" xlink:href="#ascii_39" />
      <use x="8"  y="-84.5" xlink:href="#ascii_40" />
      <use x="12" y="-84.5" xlink:href="#ascii_41" />
      <use x="16" y="-84.5" xlink:href="#ascii_42" />
      <use x="20" y="-84.5" xlink:href="#ascii_43" />
      <use x="0"  y="-91.0" xlink:href="#ascii_44" />
      <use x="4"  y="-91.0" xlink:href="#ascii_45" />
      <use x="8"  y="-91.0" xlink:href="#ascii_46" />
      <use x="12" y="-91.0" xlink:href="#ascii_47" />

      <use x="0"  y="-97.5" xlink:href="#ascii_58" />
      <use x="4"  y="-97.5" xlink:href="#ascii_59" />
      <use x="8"  y="-97.5" xlink:href="#ascii_60" />
      <use x="12" y="-97.5" xlink:href="#ascii_61" />
      <use x="16" y="-97.5" xlink:href="#ascii_62" />
      <use x="20" y="-97.5" xlink:href="#ascii_63" />
      <use x="0"  y="-104.0" xlink:href="#ascii_64" />

      <use x="0"  y="-110.5" xlink:href="#ascii_91" />
      <use x="4"  y="-110.5" xlink:href="#ascii_92" />
      <use x="8"  y="-110.5" xlink:href="#ascii_93" />
      <use x="12" y="-110.5" xlink:href="#ascii_94" />
      <use x="16" y="-110.5" xlink:href="#ascii_95" />
      <use x="20" y="-110.5" xlink:href="#ascii_96" />

      <use x="0"  y="-117.0" xlink:href="#ascii_123" />
      <use x="4"  y="-117.0" xlink:href="#ascii_124" />
      <use x="8"  y="-117.0" xlink:href="#ascii_125" />
      <use x="12" y="-117.0" xlink:href="#ascii_126" />


      <!-- Grid -->
      <use x="0"  y="0"     xlink:href="#_grid" />
      <use x="4"  y="0"     xlink:href="#_grid" />
      <use x="8"  y="0"     xlink:href="#_grid" />
      <use x="12" y="0"     xlink:href="#_grid" />
      <use x="16" y="0"     xlink:href="#_grid" />
      <use x="20" y="0"     xlink:href="#_grid" />
      <use x="0"  y="-6.5"  xlink:href="#_grid" />
      <use x="4"  y="-6.5"  xlink:href="#_grid" />
      <use x="8"  y="-6.5"  xlink:href="#_grid" />
      <use x="12" y="-6.5"  xlink:href="#_grid" />
      <use x="16" y="-6.5"  xlink:href="#_grid" />
      <use x="20" y="-6.5"  xlink:href="#_grid" />
      <use x="0"  y="-13"   xlink:href="#_grid" />
      <use x="4"  y="-13"   xlink:href="#_grid" />
      <use x="8"  y="-13"   xlink:href="#_grid" />
      <use x="12" y="-13"   xlink:href="#_grid" />
      <use x="16" y="-13"   xlink:href="#_grid" />
      <use x="20" y="-13"   xlink:href="#_grid" />
      <use x="0"  y="-19.5" xlink:href="#_grid" />
      <use x="4"  y="-19.5" xlink:href="#_grid" />
      <use x="8"  y="-19.5" xlink:href="#_grid" />
      <use x="12" y="-19.5" xlink:href="#_grid" />
      <use x="16" y="-19.5" xlink:href="#_grid" />
      <use x="20" y="-19.5" xlink:href="#_grid" />
      <use x="0"  y="-26"   xlink:href="#_grid" />
      <use x="4"  y="-26"   xlink:href="#_grid" />
      <use x="8"  y="-26"   xlink:href="#_grid" />
      <use x="12" y="-26"   xlink:href="#_grid" />
      <use x="16" y="-26"   xlink:href="#_grid" />
      <use x="20" y="-26"   xlink:href="#_grid" />
      <use x="0"  y="-32.5" xlink:href="#_grid" />
      <use x="4"  y="-32.5" xlink:href="#_grid" />
      <use x="8"  y="-32.5" xlink:href="#_grid" />
      <use x="12" y="-32.5" xlink:href="#_grid" />
      <use x="16" y="-32.5" xlink:href="#_grid" />
      <use x="20" y="-32.5" xlink:href="#_grid" />
      <use x="0"  y="-39"   xlink:href="#_grid" />
      <use x="4"  y="-39"   xlink:href="#_grid" />
      <use x="8"  y="-39"   xlink:href="#_grid" />
      <use x="12" y="-39"   xlink:href="#_grid" />
      <use x="16" y="-39"   xlink:href="#_grid" />
      <use x="20" y="-39"   xlink:href="#_grid" />
      <use x="0"  y="-45.5" xlink:href="#_grid" />
      <use x="4"  y="-45.5" xlink:href="#_grid" />
      <use x="8"  y="-45.5" xlink:href="#_grid" />
      <use x="12" y="-45.5" xlink:href="#_grid" />
      <use x="16" y="-45.5" xlink:href="#_grid" />
      <use x="20" y="-45.5" xlink:href="#_grid" />
      <use x="0"  y="-52.0" xlink:href="#_grid" />
      <use x="4"  y="-52.0" xlink:href="#_grid" />
      <use x="8"  y="-52.0" xlink:href="#_grid" />
      <use x="12" y="-52.0" xlink:href="#_grid" />
      <use x="16" y="-52.0" xlink:href="#_grid" />
      <use x="20" y="-52.0" xlink:href="#_grid" />
      <use x="0"  y="-58.5" xlink:href="#_grid" />
      <use x="4"  y="-58.5" xlink:href="#_grid" />
      <use x="8"  y="-58.5" xlink:href="#_grid" />
      <use x="12" y="-58.5" xlink:href="#_grid" />
      <use x="16" y="-58.5" xlink:href="#_grid" />
      <use x="20" y="-58.5" xlink:href="#_grid" />
      <use x="0"  y="-65.0" xlink:href="#_grid" />
      <use x="4"  y="-65.0" xlink:href="#_grid" />
      <use x="8"  y="-65.0" xlink:href="#_grid" />
      <use x="12" y="-65.0" xlink:href="#_grid" />
      <use x="16" y="-65.0" xlink:href="#_grid" />
      <use x="20" y="-65.0" xlink:href="#_grid" />
      <use x="0"  y="-71.5" xlink:href="#_grid" />
      <use x="4"  y="-71.5" xlink:href="#_grid" />
      <use x="8"  y="-71.5" xlink:href="#_grid" />
      <use x="12" y="-71.5" xlink:href="#_grid" />
      <use x="16" y="-71.5" xlink:href="#_grid" />
      <use x="20" y="-71.5" xlink:href="#_grid" />
      <use x="0"  y="-78.0" xlink:href="#_grid" />
      <use x="4"  y="-78.0" xlink:href="#_grid" />
      <use x="8"  y="-78.0" xlink:href="#_grid" />
      <use x="12" y="-78.0" xlink:href="#_grid" />
      <use x="16" y="-78.0" xlink:href="#_grid" />
      <use x="20" y="-78.0" xlink:href="#_grid" />
      <use x="0"  y="-84.5" xlink:href="#_grid" />
      <use x="4"  y="-84.5" xlink:href="#_grid" />
      <use x="8"  y="-84.5" xlink:href="#_grid" />
      <use x="12" y="-84.5" xlink:href="#_grid" />
      <use x="16" y="-84.5" xlink:href="#_grid" />
      <use x="20" y="-84.5" xlink:href="#_grid" />
      <use x="0"  y="-91.0" xlink:href="#_grid" />
      <use x="4"  y="-91.0" xlink:href="#_grid" />
      <use x="8"  y="-91.0" xlink:href="#_grid" />
      <use x="12" y="-91.0" xlink:href="#_grid" />
      <use x="16" y="-91.0" xlink:href="#_grid" />
      <use x="20" y="-91.0" xlink:href="#_grid" />
      <use x="0"  y="-97.5" xlink:href="#_grid" />
      <use x="4"  y="-97.5" xlink:href="#_grid" />
      <use x="8"  y="-97.5" xlink:href="#_grid" />
      <use x="12" y="-97.5" xlink:href="#_grid" />
      <use x="16" y="-97.5" xlink:href="#_grid" />
      <use x="20" y="-97.5" xlink:href="#_grid" />
      <use x="0"  y="-104.0" xlink:href="#_grid" />
      <use x="4"  y="-104.0" xlink:href="#_grid" />
      <use x="8"  y="-104.0" xlink:href="#_grid" />
      <use x="12" y="-104.0" xlink:href="#_grid" />
      <use x="16" y="-104.0" xlink:href="#_grid" />
      <use x="20" y="-104.0" xlink:href="#_grid" />
      <use x="0"  y="-110.5" xlink:href="#_grid" />
      <use x="4"  y="-110.5" xlink:href="#_grid" />
      <use x="8"  y="-110.5" xlink:href="#_grid" />
      <use x="12" y="-110.5" xlink:href="#_grid" />
      <use x="16" y="-110.5" xlink:href="#_grid" />
      <use x="20" y="-110.5" xlink:href="#_grid" />
      <use x="0"  y="-117.0" xlink:href="#_grid" />
      <use x="4"  y="-117.0" xlink:href="#_grid" />
      <use x="8"  y="-117.0" xlink:href="#_grid" />
      <use x="12" y="-117.0" xlink:href="#_grid" />
      <use x="16" y="-117.0" xlink:href="#_grid" />
      <use x="20" y="-117.0" xlink:href="#_grid" />
    </g>
  </g>
</svg>
