<!--
  TODO
  - arc representation convertion (svg <-> our format)
-->

<!-- viewBox = -d -d width (something-big) -->
<!-- width  = 4 x (num-columns) + 2d -->
<!--        = 4 x 6 + 2 -->
<svg xmlns="http://www.w3.org/2000/svg" xmlns:xlink="http://www.w3.org/1999/xlink"
     width="600" height="1900" viewBox="-1 -1 26 10000" preserveAspectRatio="xMinYMin slice">

  <defs>
    <!--
      Coordinate grid [-2, 2] x [2, 4]

      (-2, 4) - (0, 4) - (2, 4)
        |        |        |
      (-2, 0) - (0, 0) - (2, 0)
      (-2,-2) - (0,-2) - (2,-2)
    -->
    <g id="_grid" fill="transparent" stroke="black" stroke-width="0.05" stroke-opacity="0.1">
      <path d="M -2  4  h 4"/>
      <path d="M -2  3  h 4"/>
      <path d="M -2  2  h 4"/>
      <path d="M -2  1  h 4"/>
      <path d="M -2  0  h 4" stroke-opacity="0.4"/>
      <path d="M -2 -1  h 4"/>
      <path d="M -2 -2  h 4"/>

      <path d="M -2 -2  v 6"/>
      <path d="M -1 -2  v 6"/>
      <path d="M  0 -2  v 6" stroke-opacity="0.4"/>
      <path d="M  1 -2  v 6"/>
      <path d="M  2 -2  v 6"/>
    </g>

    <!-- English alphabets -->
    <!-- "arc" on the right is our circle arc notation used for sdf font code generation -->

    <!-- upper case -->
    <g id="en_A">
      <path d="M 0 4  L -1 0"/>
      <path d="M 0 4  L  1 0"/>
      <path d="M -0.75 1  L 0.75 1"/>
    </g>
    <g id="en_B">
      <path d="M -1 4  L -1 0"/>
      <path d="M -1 4  L 0 4"/>
      <path d="M  0 4  A 1 1  0  1 0  0 2"/> <!-- arc 0 3  1  0.25 -0.25 -->
      <path d="M 0 2  L -1 2"/>
      <path d="M  0 2  A 1 1  0  1 0  0 0"/> <!-- arc 0 1  1  0.25 -0.25 -->
      <path d="M 0 0  L -1 0"/>
    </g>
    <g id="en_C">
      <path d="M  1 3  A 1 1  0  1 1  -1 3"/> <!-- arc 0 3  1  0 0.5 -->
      <path d="M -1 3  L -1 1"/>
      <path d="M -1 1  A 1 1  0  1 1  1 1"/> <!-- arc 0 1  1  0.5 1.0 -->
    </g>
    <g id="en_D">
      <path d="M -1 4  L -1 0"/>
      <path d="M -1 4  A 2 2  0  1 0  -1 0"/> <!-- arc -1 2  2  0.25 -0.25 -->
    </g>
    <g id="en_E">
      <path d="M -1 4  L -1 0"/>
      <path d="M -1 4  L 1 4"/>
      <path d="M -1 2  L 1 2"/>
      <path d="M -1 0  L 1 0"/>
    </g>
    <g id="en_F">
      <path d="M -1 4  L -1 0"/>
      <path d="M -1 4  L 1 4"/>
      <path d="M -1 2  L 1 2"/>
    </g>
    <g id="en_G">
      <path d="M  1 3  A 1 1  0  1 1  -1 3"/> <!-- arc 0 3  1  0 0.5 -->
      <path d="M -1 3  L -1 1"/>
      <path d="M -1 1  A 1 1  0  1 1  1 1"/> <!-- arc 0 1  1  0.5 1.0 -->
      <path d="M 1 1  L 1 2"/>
      <path d="M 0 2  L 1 2"/>
    </g>
    <g id="en_H">
      <path d="M -1 4  L -1 0"/>
      <path d="M -1 2  L 1 2"/>
      <path d="M 1 4  L 1 0"/>
    </g>
    <g id="en_I">
      <path d="M -0.5 4  L 0.5 4"/>
      <path d="M 0 4  L 0 0"/>
      <path d="M -0.5 0  L 0.5 0"/>
    </g>
    <g id="en_J">
      <path d="M 0.5 4  L 1.5 4"/>
      <path d="M 1 4  L 1 1"/>
      <path d="M 1 1  A 1 1  0  1 0  -1 1"/>  <!-- arc 0 1  1  0 -0.5 -->
    </g>
    <g id="en_K">
      <path d="M -1 4  L -1 0"/>
      <path d="M 1 4  L -1 2"/>
      <path d="M -1 2  L 1 0"/>
    </g>
    <g id="en_L">
      <path d="M -1 4  L -1 0"/>
      <path d="M -1 0  L 1 0"/>
    </g>
    <g id="en_M">
      <path d="M -1 4  L -1 0"/>
      <path d="M -1 4  L 0 0"/>
      <path d="M 0 0  L 1 4"/>
      <path d="M 1 4  L 1 0"/>
    </g>
    <g id="en_N">
      <path d="M -1 4  L -1 0"/>
      <path d="M -1 4  L 1 0"/>
      <path d="M 1 4  L 1 0"/>
    </g>
    <g id="en_O">
      <path d="M  0 4  A 1 1  0  0 1  -1 3"/>  <!-- arc 0 3  1  0.25 0.5 -->
      <path d="M -1 3  L -1 1"/>
      <path d="M -1 1  A 1 1  0  1 1  1 1"/>  <!-- arc 0 1  1  0.5 1.0 -->
      <path d="M 1 1  L 1 3"/>
      <path d="M 1 3  A 1 1  0  0 1  0 4"/>  <!-- arc 0 3  1  0 0.25 -->
    </g>
    <g id="en_P">
      <path d="M -1 4  L -1 0"/>
      <path d="M -1 4  L 0 4"/>
      <path d="M 0 4  A 1 1  0  1 0  0 2"/>  <!-- arc 0 3  1  0.25 -0.25 -->
      <path d="M 0 2  L -1 2"/>
    </g>
    <g id="en_Q">
      <!-- <use xlink:href="#en_O" /> -->
      <path d="M  0 4  A 1 1  0  0 1  -1 3"/>  <!-- arc 0 3  1  0.25 0.5 -->
      <path d="M -1 3  L -1 1"/>
      <path d="M -1 1  A 1 1  0  1 1  1 1"/>  <!-- arc 0 1  1  0.5 1.0 -->
      <path d="M 1 1  L 1 3"/>
      <path d="M 1 3  A 1 1  0  0 1  0 4"/>  <!-- arc 0 3  1  0 0.25 -->

      <path d="M 0 1  L 1 0"/>
    </g>
    <g id="en_R">
      <!-- <use xlink:href="#en_P" /> -->
      <path d="M -1 4  L -1 0"/>
      <path d="M -1 4  L 0 4"/>
      <path d="M 0 4  A 1 1  0  1 0  0 2"/>  <!-- arc 0 3  1  0.25 -0.25 -->
      <path d="M 0 2  L -1 2"/>

      <path d="M 0 2  L 1 0"/>
    </g>
    <g id="en_S">
      <path d="M 1 3  A 1 1  0  1 1  0 2"/>  <!-- arc 0 3  1  0 0.75 -->
      <path d="M 0 2  A 1 1  0  1 0  -1 1"/> <!-- arc 0 1  1  0.25 -0.5 -->
    </g>
    <g id="en_T">
      <path d="M -1 4  L 1 4"/>
      <path d="M 0 4  L 0 0"/>
    </g>
    <g id="en_U">
      <path d="M -1 4  L -1 1"/>
      <path d="M -1 1  A 1 1  0  1 1  1 1"/>  <!-- arc 0 1  1  0.5 1.0 -->
      <path d="M 1 1  L 1 4"/>
    </g>
    <g id="en_V">
      <path d="M -1 4  L 0 0"/>
      <path d="M 0 0  L 1 4"/>
    </g>
    <g id="en_W">
      <path d="M -1 4  L -0.5 0"/>
      <path d="M -0.5 0  L 0 4"/>
      <path d="M 0 4  L 0.5 0"/>
      <path d="M 0.5 0  L 1 4"/>
    </g>
    <g id="en_X">
      <path d="M -1 4  L 1 0"/>
      <path d="M 1 4  L -1 0"/>
    </g>
    <g id="en_Y">
      <path d="M -1 4  L 0 2"/>
      <path d="M 1 4  L 0 2"/>
      <path d="M 0 2  L 0 0"/>
    </g>
    <g id="en_Z">
      <path d="M -1 4  L 1 4"/>
      <path d="M 1 4  L -1 0"/>
      <path d="M -1 0  L 1 0"/>
    </g>

    <!-- lower case -->
    <g id="en_a">
      <path d="M 1 1  A 1 1  0  1 1  1 0.999"/> <!-- arc 0 1  1  0 1 -->
      <path d="M -1 3  L 0 3"/>
      <path d="M 0 3  A 1 1  0  0 0  1 2"/> <!-- arc 0 2  1  0.25 0 -->
      <path d="M 1 2  L 1 0"/>
    </g>
    <g id="en_b">
      <path d="M -1 4  L -1 0"/>
      <path d="M -1 1  A 1 1  0  1 0  -1 0.999"/> <!-- arc 0 1  1  0.5 -0.5 -->
    </g>
    <g id="en_c">
      <!--  1 / sqrt(2) ~= 0.707 -->
      <path d="M  0.707 1.707  A 1 1  0  1 1  0.707 0.293"/> <!-- arc 0 1  1  0.125 0.875 -->
    </g>
    <g id="en_d">
      <path d="M 1 1  A 1 1  0  1 1  1 0.999"/> <!-- arc 0 1  1  0 1 -->
      <path d="M 1 4  L 1 0"/>
    </g>
    <g id="en_e">
      <path d="M -1 1  L 1 1"/>
      <path d="M  1 1  A 1 1  0  1 1  0.707 0.293"/> <!-- arc 0 1  1  0 0.875 -->
    </g>
    <g id="en_f">
      <path d="M  1 3.5  L 0.5 3.5"/>
      <path d="M  0.5 3.5  A 0.5 0.5  0  0 1  0 3"/> <!-- arc 0.5 3  0.5  0.25 0.5 -->
      <path d="M  0 3  L 0 0"/>
      <path d="M -1 2  L 1 2"/>
    </g>
    <g id="en_g">
      <path d="M  1 1  A 1 1  0  1 0  1 1.001"/> <!-- arc 0 1  1  0 1 -->
      <path d="M 1 2  L 1 -1"/>
      <path d="M 1 -1  A 1 1  0  1 0  -1 -1"/> <!-- arc 0 -1  1  0 -0.5 -->
    </g>
    <g id="en_h">
      <path d="M -1 4  L -1 0"/>
      <path d="M -1 1  A 1 1  0  1 0  1 1"/>  <!-- arc 0 1  1  0.5 0 -->
      <path d="M  1 1  L 1 0"/>
    </g>
    <g id="en_i">
      <path d="M 0 2  L 0 0"/>
      <path d="M 0 3  L 0 3"/>
    </g>
    <g id="en_j">
      <path d="M 1 2  L 1 0"/>
      <path d="M 1 0  A 1 1  0  1 0  -1 0"/>  <!-- arc 0 0  1  0 -0.5 -->
      <path d="M 1 3  L 1 3"/>
    </g>
    <g id="en_k">
      <path d="M -1 4  L -1 0"/>
      <path d="M  1 2  L -1 1"/>
      <path d="M  0 1.5  L 1 0"/>
    </g>
    <g id="en_l">
      <path d="M 0 4  L 0 0"/>
    </g>
    <g id="en_m">
      <path d="M -1 2  L -1 0"/>
      <path d="M -1 1.5  A 0.5 0.5  0  1 0  0 1.5"/>  <!-- arc -0.5 1.5  0.5  0.5 0 -->
      <path d="M  0 1.5  L 0 0"/>
      <path d="M  0 1.5  A 0.5 0.5  0  1 0  1 1.5"/>  <!-- arc 0.5 1.5  0.5  0.5 0 -->
      <path d="M  1 1.5  L 1 0"/>
    </g>
    <g id="en_n">
      <path d="M -1 2  L -1 0"/>
      <path d="M -1 1  A 0.5 0.5  0  1 0  1 1"/>  <!-- arc 0 1  1  0.5 0 -->
      <path d="M  1 1  L 1 0"/>
    </g>
    <g id="en_o">
      <path d="M  0 2  A 1 1  0  1 1  0.001 2"/>  <!-- arc 0 1  1  0.25 1.25 -->
    </g>
    <g id="en_p">
      <path d="M -1 2  L -1 -2"/>
      <path d="M -1 1  A 1 1  0  1 0  -1 0.999"/> <!-- arc 0 1  1  0.5 -0.5 -->
    </g>
    <g id="en_q">
      <path d="M 1 1.001  A 1 1  0  1 1  1 1"/> <!-- arc 0 1  1  0 1 -->
      <path d="M 1 2  L 1 -2"/>
    </g>
    <g id="en_r">
      <path d="M 0 2  L 0 0"/>
      <path d="M 0 1  A 1 1  0  0 0  1 2"/>  <!-- arc 1 1  1  0.5 0.25 -->
    </g>
    <g id="en_s">
      <path d="M 0.75 1.5  A 0.5 0.5  0  0 1  0.25 2"/>  <!-- arc 0.25 1.5  0.5  0 0.25 -->
      <path d="M 0.25 2  L -0.25 2"/>
      <path d="M -0.25 2  A 0.5 0.5  0  1 1  -0.25 1"/>  <!-- arc -0.25 1.5  0.5  0.25 0.75 -->
      <path d="M -0.25 1  L 0.25 1"/>
      <path d="M 0.25 1    A 0.5 0.5  0  1 0  0.25 0"/>  <!-- arc 0.25 0.5  0.5  0.25 -0.25 -->
      <path d="M 0.25 0  L -0.25 0"/>
      <path d="M -0.25 0  A 0.5 0.5  0  0 0  -0.75 0.5"/>  <!-- arc -0.25 0.5  0.5  -0.25 -0.5 -->
    </g>
    <g id="_en_s">
      <path d="M 0.5 1.5  A 0.5 0.5  0  1 1  0 1"/>
      <path d="M 0 1  A 0.5 0.5  0  1 0  -0.5 0.5"/>
    </g>
    <g id="en_t">
      <path d="M 0 2.5  L 0 0.5"/>
      <path d="M 0 0.5  A 0.5 0.5  0  0 1  0.5 0"/>  <!-- arc 0.5 0.5  0.5  0.5 0.75 -->
      <path d="M -0.5 2  L 0.5 2"/>
    </g>
    <g id="_en_t">
      <path d="M 0 3  L 0 0.5"/>
      <path d="M 0 0.5  A 0.5 0.5  0  0 1  0.5 0"/>   <!-- arc 0 1  1  0.5 1 -->
      <path d="M 0.5 0  L 1 0"/>
      <path d="M -1 2  L 1 2"/>
    </g>
    <g id="_en_t">
      <path d="M 0 2  L 0 0.5"/>
      <path d="M 0 0.5  A 0.5 0.5  0  0 1  0.5 0"/>
      <path d="M -0.5 1.5  L 0.5 1.5"/>
    </g>
    <g id="en_u">
      <path d="M -1 2  L -1 1"/>
      <path d="M -1 1  A 1 1  0  1 1  1 1"/>  <!-- arc 0 1  1  0.5 1.0 -->
      <path d="M 1 1  L 1 2"/>
      <path d="M 1 1  L 1 0"/>
    </g>
    <g id="en_v">
      <path d="M -1 2  L 0 0"/>
      <path d="M 0 0  L 1 2"/>
    </g>
    <g id="en_w">
      <path d="M -1 2  L -0.5 0"/>
      <path d="M -0.5 0  L 0 2"/>
      <path d="M 0 2  L 0.5 0"/>
      <path d="M 0.5 0  L 1 2"/>
    </g>
    <g id="en_x">
      <path d="M -1 2  L 1 0"/>
      <path d="M 1 2  L -1 0"/>
    </g>
    <g id="en_y">
      <path d="M -1 2  L 0 0"/>
      <path d="M 1 2  L -1 -2"/>
    </g>
    <g id="en_z">
      <path d="M -1 2  L 1 2"/>
      <path d="M 1 2  L -1 0"/>
      <path d="M -1 0  L 1 0"/>
    </g>

    <!--  ASCII symbols -->
    <!--
      (32, ' ')
      (33, '!')
      (34, '"')
      (35, '#')
      (36, '$')
      (37, '%')
      (38, '&')
      (39, "'")
      (40, '(')
      (41, ')')
      (42, '*')
      (43, '+')
      (44, ',')
      (45, '-')
      (46, '.')
      (47, '/')
      (58, ':')
      (59, ';')
      (60, '<')
      (61, '=')
      (62, '>')
      (63, '?')
      (64, '@')
      (91, '[')
      (92, '\\')
      (93, ']')
      (94, '^')
      (95, '_')
      (96, '`')
      (123, '{')
      (124, '|')
      (125, '}')
      (126, '~')
     -->
  </defs>

  <!-- Transform [0, 4] x [0, 6] to  [-2, 2] x [4, -2] -->
  <g transform="matrix(1 0 0 -1 2 4)">
    <g stroke-linecap="round" stroke="black" stroke-width="0.25" fill="none">

      <!-- Upper case -->
      <use x="0"  y="0" xlink:href="#en_A" />
      <use x="4"  y="0" xlink:href="#en_B" />
      <use x="8"  y="0" xlink:href="#en_C" />
      <use x="12" y="0" xlink:href="#en_D" />
      <use x="16" y="0" xlink:href="#en_E" />
      <use x="20" y="0" xlink:href="#en_F" />
      <use x="0"  y="-6.5" xlink:href="#en_G" />
      <use x="4"  y="-6.5" xlink:href="#en_H" />
      <use x="8"  y="-6.5" xlink:href="#en_I" />
      <use x="12" y="-6.5" xlink:href="#en_J" />
      <use x="16" y="-6.5" xlink:href="#en_K" />
      <use x="20" y="-6.5" xlink:href="#en_L" />
      <use x="0"  y="-13" xlink:href="#en_M" />
      <use x="4"  y="-13" xlink:href="#en_N" />
      <use x="8"  y="-13" xlink:href="#en_O" />
      <use x="12" y="-13" xlink:href="#en_P" />
      <use x="16" y="-13" xlink:href="#en_Q" />
      <use x="20" y="-13" xlink:href="#en_R" />
      <use x="0"  y="-19.5" xlink:href="#en_S" />
      <use x="4"  y="-19.5" xlink:href="#en_T" />
      <use x="8"  y="-19.5" xlink:href="#en_U" />
      <use x="12" y="-19.5" xlink:href="#en_V" />
      <use x="16" y="-19.5" xlink:href="#en_W" />
      <use x="20" y="-19.5" xlink:href="#en_X" />
      <use x="0"  y="-26" xlink:href="#en_Y" />
      <use x="4"  y="-26" xlink:href="#en_Z" />

      <!-- Lower case -->
      <use x="0"  y="-32.5" xlink:href="#en_a" />
      <use x="4"  y="-32.5" xlink:href="#en_b" />
      <use x="8"  y="-32.5" xlink:href="#en_c" />
      <use x="12" y="-32.5" xlink:href="#en_d" />
      <use x="16" y="-32.5" xlink:href="#en_e" />
      <use x="20" y="-32.5" xlink:href="#en_f" />
      <use x="0"  y="-39" xlink:href="#en_g" />
      <use x="4"  y="-39" xlink:href="#en_h" />
      <use x="8"  y="-39" xlink:href="#en_i" />
      <use x="12" y="-39" xlink:href="#en_j" />
      <use x="16" y="-39" xlink:href="#en_k" />
      <use x="20" y="-39" xlink:href="#en_l" />
      <use x="0"  y="-45.5" xlink:href="#en_m" />
      <use x="4"  y="-45.5" xlink:href="#en_n" />
      <use x="8"  y="-45.5" xlink:href="#en_o" />
      <use x="12" y="-45.5" xlink:href="#en_p" />
      <use x="16" y="-45.5" xlink:href="#en_q" />
      <use x="20" y="-45.5" xlink:href="#en_r" />
      <use x="0"  y="-52.0" xlink:href="#en_s" />
      <use x="4"  y="-52.0" xlink:href="#en_t" />
      <use x="8"  y="-52.0" xlink:href="#en_u" />
      <use x="12" y="-52.0" xlink:href="#en_v" />
      <use x="16" y="-52.0" xlink:href="#en_w" />
      <use x="20" y="-52.0" xlink:href="#en_x" />
      <use x="0"  y="-58.5" xlink:href="#en_y" />
      <use x="4"  y="-58.5" xlink:href="#en_z" />

      <!-- ASCII symbols -->

      <!-- Grid -->
      <use x="0"  y="0"     xlink:href="#_grid" />
      <use x="4"  y="0"     xlink:href="#_grid" />
      <use x="8"  y="0"     xlink:href="#_grid" />
      <use x="12" y="0"     xlink:href="#_grid" />
      <use x="16" y="0"     xlink:href="#_grid" />
      <use x="20" y="0"     xlink:href="#_grid" />
      <use x="0"  y="-6.5"  xlink:href="#_grid" />
      <use x="4"  y="-6.5"  xlink:href="#_grid" />
      <use x="8"  y="-6.5"  xlink:href="#_grid" />
      <use x="12" y="-6.5"  xlink:href="#_grid" />
      <use x="16" y="-6.5"  xlink:href="#_grid" />
      <use x="20" y="-6.5"  xlink:href="#_grid" />
      <use x="0"  y="-13"   xlink:href="#_grid" />
      <use x="4"  y="-13"   xlink:href="#_grid" />
      <use x="8"  y="-13"   xlink:href="#_grid" />
      <use x="12" y="-13"   xlink:href="#_grid" />
      <use x="16" y="-13"   xlink:href="#_grid" />
      <use x="20" y="-13"   xlink:href="#_grid" />
      <use x="0"  y="-19.5" xlink:href="#_grid" />
      <use x="4"  y="-19.5" xlink:href="#_grid" />
      <use x="8"  y="-19.5" xlink:href="#_grid" />
      <use x="12" y="-19.5" xlink:href="#_grid" />
      <use x="16" y="-19.5" xlink:href="#_grid" />
      <use x="20" y="-19.5" xlink:href="#_grid" />
      <use x="0"  y="-26"   xlink:href="#_grid" />
      <use x="4"  y="-26"   xlink:href="#_grid" />
      <use x="8"  y="-26"   xlink:href="#_grid" />
      <use x="12" y="-26"   xlink:href="#_grid" />
      <use x="16" y="-26"   xlink:href="#_grid" />
      <use x="20" y="-26"   xlink:href="#_grid" />
      <use x="0"  y="-32.5" xlink:href="#_grid" />
      <use x="4"  y="-32.5" xlink:href="#_grid" />
      <use x="8"  y="-32.5" xlink:href="#_grid" />
      <use x="12" y="-32.5" xlink:href="#_grid" />
      <use x="16" y="-32.5" xlink:href="#_grid" />
      <use x="20" y="-32.5" xlink:href="#_grid" />
      <use x="0"  y="-39"   xlink:href="#_grid" />
      <use x="4"  y="-39"   xlink:href="#_grid" />
      <use x="8"  y="-39"   xlink:href="#_grid" />
      <use x="12" y="-39"   xlink:href="#_grid" />
      <use x="16" y="-39"   xlink:href="#_grid" />
      <use x="20" y="-39"   xlink:href="#_grid" />
      <use x="0"  y="-45.5" xlink:href="#_grid" />
      <use x="4"  y="-45.5" xlink:href="#_grid" />
      <use x="8"  y="-45.5" xlink:href="#_grid" />
      <use x="12" y="-45.5" xlink:href="#_grid" />
      <use x="16" y="-45.5" xlink:href="#_grid" />
      <use x="20" y="-45.5" xlink:href="#_grid" />
      <use x="0"  y="-52.0" xlink:href="#_grid" />
      <use x="4"  y="-52.0" xlink:href="#_grid" />
      <use x="8"  y="-52.0" xlink:href="#_grid" />
      <use x="12" y="-52.0" xlink:href="#_grid" />
      <use x="16" y="-52.0" xlink:href="#_grid" />
      <use x="20" y="-52.0" xlink:href="#_grid" />
      <use x="0"  y="-58.5" xlink:href="#_grid" />
      <use x="4"  y="-58.5" xlink:href="#_grid" />
      <use x="8"  y="-58.5" xlink:href="#_grid" />
      <use x="12" y="-58.5" xlink:href="#_grid" />
      <use x="16" y="-58.5" xlink:href="#_grid" />
      <use x="20" y="-58.5" xlink:href="#_grid" />
      <use x="0"  y="-65.0" xlink:href="#_grid" />
      <use x="4"  y="-65.0" xlink:href="#_grid" />
      <use x="8"  y="-65.0" xlink:href="#_grid" />
      <use x="12" y="-65.0" xlink:href="#_grid" />
      <use x="16" y="-65.0" xlink:href="#_grid" />
      <use x="20" y="-65.0" xlink:href="#_grid" />
      <use x="0"  y="-71.5" xlink:href="#_grid" />
      <use x="4"  y="-71.5" xlink:href="#_grid" />
      <use x="8"  y="-71.5" xlink:href="#_grid" />
      <use x="12" y="-71.5" xlink:href="#_grid" />
      <use x="16" y="-71.5" xlink:href="#_grid" />
      <use x="20" y="-71.5" xlink:href="#_grid" />
    </g>
  </g>
</svg>
